<svg xmlns="http://www.w3.org/2000/svg" width="250.23mm" height="243.46mm" viewBox="0 0 709.32 690.11"><path d="M851.55,1841.38a37.4,37.4,0,0,1-37.4-37.41V1654.35a37.41,37.41,0,1,1,74.81,0V1804A37.41,37.41,0,0,1,851.55,1841.38Z" transform="translate(-588.23 -1151.27)" fill="#0f0a3c"/><path d="M1015.57,1841.38A37.41,37.41,0,0,1,978.16,1804V1654.35a37.41,37.41,0,1,1,74.81,0V1804A37.4,37.4,0,0,1,1015.57,1841.38Z" transform="translate(-588.23 -1151.27)" fill="#0f0a3c"/><path d="M1176.45,1527.88l.16-.25-63.12-40.16c2.1-3.29,52.4-80.63,146.66-80.63a37.41,37.41,0,1,1,0,74.81C1207.55,1481.65,1177.7,1526,1176.45,1527.88Z" transform="translate(-588.23 -1151.27)" fill="#0f0a3c"/><path d="M697.61,1559.7a37.16,37.16,0,0,1-17.55-4.4c-3.45-1.83-84.44-46-91.71-140a37.41,37.41,0,1,1,74.59-5.77c4.07,52.64,51.81,79.48,52.29,79.74a37.41,37.41,0,0,1-17.62,70.42Z" transform="translate(-588.23 -1151.27)" fill="#0f0a3c"/><path d="M836.41,1286.43c3.41-13.91,2.56-36.92-5.39-48.84-16.32-24.48-36.71-36.72-20.4-69.35,27.37-54.74-63.92,32.25-70.72,128.32-5.33,75.45,54,39.37,79.72,20.41a38.85,38.85,0,0,0,14.71-22Z" transform="translate(-588.23 -1151.27)" fill="#80ed99"/><path d="M1032.3,1729.16H837.69a144.42,144.42,0,0,1-144.4-144.4V1390.15a144.4,144.4,0,0,1,144.4-144.4H1032.3a144.39,144.39,0,0,1,144.4,144.4v194.61a144.4,144.4,0,0,1-144.4,144.4Z" transform="translate(-588.23 -1151.27)" fill="#80ed99"/><circle cx="423.75" cy="294.02" r="69.66" fill="#fff" stroke="#0f0a3c" stroke-miterlimit="10" stroke-width="5"/><circle cx="423.75" cy="294.02" r="21.67" fill="#060201"/><circle cx="269.78" cy="294.02" r="69.66" fill="#fff" stroke="#0f0a3c" stroke-miterlimit="10" stroke-width="5"/><circle cx="269.78" cy="294.02" r="21.67" fill="#060201"/><path d="M989.55,1563.31c-35.64,43.22-113,24.72-113.76,24.53a9.44,9.44,0,0,0-4.55,18.32,193.76,193.76,0,0,0,43.18,4.78c28.88,0,65.81-6.66,89.69-35.62a9.44,9.44,0,0,0-14.56-12Z" transform="translate(-588.23 -1151.27)" fill="#0f0a3c"/></svg>