<svg width="200" height="32" viewBox="0 0 200 32" fill="none" xmlns="http://www.w3.org/2000/svg">
<path d="M59.3526 3.78873V31.3723H53.0833V20.4001H45.5621V31.3723H39.2928V3.78873H45.5621V14.7609H53.0843V3.78873H59.3526ZM61.7815 5.04269C61.7815 4.29875 62.0021 3.57151 62.4154 2.95295C62.8286 2.33438 63.416 1.85227 64.1033 1.56757C64.7905 1.28288 65.5468 1.20839 66.2764 1.35353C67.0059 1.49866 67.6761 1.85691 68.2021 2.38295C68.7281 2.909 69.0863 3.57922 69.2314 4.30887C69.3766 5.03852 69.3021 5.79482 69.0174 6.48214C68.7327 7.16945 68.2507 7.75691 67.6321 8.17022C67.0136 8.58353 66.2865 8.80414 65.5426 8.80414C64.5452 8.80389 63.5887 8.40752 62.8834 7.70217C62.1781 6.99681 61.7817 6.04022 61.7815 5.04269ZM62.4084 11.9386H68.6777V31.3723H62.4084V11.9386ZM81.6832 31.3723V3.78873H87.9525V31.3723H81.6832ZM109.813 20.0889V31.3733H103.544V20.715C103.544 17.5801 101.781 16.9535 100.409 16.9535C99.1182 16.9535 97.2743 18.1291 97.2743 21.342V31.3723H91.0051V11.9386H97.2743V14.1326C98.2147 12.5651 100.252 11.3116 102.603 11.3116C106.561 11.3116 109.813 14.211 109.813 20.0889ZM120.077 17.5805V23.3792C120.077 26.3569 121.214 26.9839 123.212 25.7696L125.092 30.5886C124.074 31.3723 122.664 31.9993 120.548 31.9993C115.611 31.9993 113.81 28.3946 113.81 23.8494V17.5796H110.675V11.9386H113.81V5.66876L120.079 3.7878V11.9377H125.093V17.5796L120.077 17.5805ZM145.073 23.6927H132.066C132.615 25.2602 134.025 26.3569 136.454 26.3569C137.864 26.3569 139 25.8498 139.98 25.0661L143.741 28.7491C142.135 30.5513 139.353 32.0012 136.219 32.0012C129.872 32.0012 125.641 27.3776 125.641 21.6573C125.641 15.937 129.559 11.3135 135.749 11.3135C141.273 11.3135 145.347 15.0749 145.386 20.952C145.386 21.773 145.308 22.9878 145.073 23.6927ZM131.988 19.6182H139.314C139 18.1291 137.943 16.9535 135.906 16.9535C133.672 16.954 132.497 18.0508 131.988 19.6182ZM160.352 11.3116V18.2075C158.942 17.7765 157.453 17.8156 156.317 18.2075C154.554 18.8345 152.83 20.7542 152.83 23.8103V31.3709H146.561V11.9386H152.83V15.4257C154.123 12.7223 156.513 11.5467 160.352 11.3116ZM180.96 20.0889V31.3733H174.691V20.715C174.691 17.5801 172.928 16.9535 171.556 16.9535C170.263 16.9535 168.421 18.1291 168.421 21.342V31.3723H162.152V11.9386H168.421V14.1326C169.362 12.5651 171.399 11.3116 173.749 11.3116C177.708 11.3116 180.96 14.211 180.96 20.0889ZM199.06 25.2602C199.06 28.9022 196.202 31.9993 190.362 31.9993C186.053 31.9993 183.075 30.04 182.135 29.1L184.643 24.3976C186.523 25.9259 188.284 26.4722 189.462 26.5916C191.695 26.8267 192.792 26.2781 192.792 25.534C192.792 24.6327 191.734 24.3584 189.931 24.0057C183.702 22.791 183.075 19.7349 183.075 17.5801C183.075 14.4064 185.779 11.3102 191.029 11.3102C191.029 11.3102 194.594 11.3102 197.532 13.2691L195.142 17.9318C194.079 17.112 192.799 16.6216 191.46 16.5211C190.127 16.4036 189.344 16.7562 189.344 17.4224C189.344 18.0494 189.736 18.3629 191.303 18.6372C195.73 19.3831 199.06 21.1069 199.06 25.2602ZM12.1381 31.8163C11.9116 31.8163 11.6874 31.7717 11.4782 31.685C11.269 31.5983 11.0789 31.4713 10.9188 31.3111C10.7587 31.151 10.6317 30.9608 10.5451 30.7516C10.4585 30.5423 10.414 30.3181 10.414 30.0916V23.1939C10.4103 22.965 10.4521 22.7378 10.5371 22.5253C10.6221 22.3128 10.7485 22.1193 10.909 21.9562C11.0694 21.793 11.2608 21.6635 11.4719 21.575C11.6829 21.4866 11.9095 21.441 12.1383 21.441C12.3671 21.441 12.5937 21.4866 12.8048 21.575C13.0158 21.6635 13.2072 21.793 13.3676 21.9562C13.5281 22.1193 13.6545 22.3128 13.7395 22.5253C13.8245 22.7378 13.8663 22.965 13.8626 23.1939V30.093C13.8622 30.5502 13.6804 30.9885 13.357 31.3116C13.0336 31.6348 12.5952 31.8163 12.1381 31.8163ZM19.699 31.8163C19.2419 31.8163 18.8034 31.6348 18.4801 31.3116C18.1567 30.9885 17.9749 30.5502 17.9745 30.093V23.1939C17.9707 22.965 18.0126 22.7378 18.0976 22.5253C18.1825 22.3128 18.3089 22.1193 18.4694 21.9562C18.6299 21.793 18.8213 21.6635 19.0323 21.575C19.2434 21.4866 19.4699 21.441 19.6988 21.441C19.9276 21.441 20.1542 21.4866 20.3652 21.575C20.5763 21.6635 20.7676 21.793 20.9281 21.9562C21.0886 22.1193 21.215 22.3128 21.3 22.5253C21.385 22.7378 21.4268 22.965 21.423 23.1939V30.093C21.4228 30.5501 21.2411 30.9885 20.9178 31.3116C20.5945 31.6348 20.1561 31.8163 19.699 31.8163ZM27.1152 17.3634L27.1226 17.3519L24.2129 15.5004C24.3097 15.3487 26.6284 11.7832 30.9735 11.7832C31.2024 11.7795 31.4296 11.8213 31.6421 11.9063C31.8546 11.9913 32.048 12.1177 32.2111 12.2782C32.3743 12.4387 32.5038 12.6301 32.5923 12.8412C32.6807 13.0522 32.7263 13.2788 32.7263 13.5077C32.7263 13.7365 32.6807 13.9631 32.5923 14.1742C32.5038 14.3853 32.3743 14.5766 32.2111 14.7371C32.048 14.8976 31.8546 15.024 31.6421 15.109C31.4296 15.194 31.2024 15.2358 30.9735 15.2321C28.5488 15.2321 27.1728 17.2767 27.1152 17.3634ZM5.04181 18.8303C4.75955 18.8304 4.48164 18.7607 4.2328 18.6275C4.07376 18.5431 0.340318 16.5068 0.00518824 12.1733C-0.0155826 11.9457 0.00906552 11.7163 0.0777009 11.4984C0.146336 11.2804 0.25759 11.0783 0.405 10.9037C0.55241 10.7291 0.733037 10.5856 0.936388 10.4814C1.13974 10.3773 1.36176 10.3146 1.58955 10.2969C1.81735 10.2793 2.04637 10.3071 2.26332 10.3788C2.48027 10.4504 2.68082 10.5645 2.85332 10.7143C3.02583 10.8641 3.16684 11.0467 3.26817 11.2515C3.36951 11.4563 3.42914 11.6792 3.44361 11.9072C3.63122 14.334 5.83192 15.5714 5.85405 15.5834C6.19348 15.7644 6.46265 16.0537 6.61875 16.4053C6.77485 16.7569 6.80893 17.1506 6.71556 17.5238C6.62218 17.8971 6.40673 18.2283 6.10345 18.465C5.80017 18.7016 5.42648 18.8301 5.04181 18.8299V18.8303Z" fill="#0F0A3C"/>
<path d="M11.4414 6.23215C11.5986 5.59087 11.5594 4.53007 11.1929 3.98054C10.4405 2.85197 9.50048 2.28768 10.2524 0.783381C11.5142 -1.74023 7.30558 2.27016 6.99209 6.69916C6.74636 10.1775 9.48158 8.51418 10.6673 7.6401C11.0051 7.3918 11.2451 7.03288 11.3455 6.62586L11.4414 6.23215Z" fill="#23E7A1"/>
<path d="M20.4713 26.6425H11.5002C9.73491 26.6423 8.04194 25.9408 6.79366 24.6924C5.54538 23.444 4.84399 21.7509 4.84375 19.9854V11.0135C4.84375 9.24797 5.54506 7.55471 6.79339 6.30626C8.04173 5.05782 9.73483 4.35645 11.5002 4.35645H20.4713C21.3455 4.35638 22.2111 4.52853 23.0187 4.86306C23.8263 5.19759 24.5602 5.68795 25.1783 6.30613C25.7964 6.92431 26.2867 7.6582 26.6212 8.46591C26.9557 9.27361 27.1278 10.1393 27.1278 11.0135V19.9854C27.1278 21.751 26.4265 23.4442 25.1781 24.6927C23.9298 25.9411 22.2367 26.6425 20.4713 26.6425Z" fill="#23E7A1"/>
<path d="M19.5337 16.7671C21.3073 16.7671 22.7452 15.3293 22.7452 13.5557C22.7452 11.7821 21.3073 10.3442 19.5337 10.3442C17.7601 10.3442 16.3223 11.7821 16.3223 13.5557C16.3223 15.3293 17.7601 16.7671 19.5337 16.7671Z" fill="white" stroke="#0F0A3C" stroke-width="0.230509" stroke-miterlimit="10"/>
<path d="M19.5342 14.5547C20.0859 14.5547 20.5332 14.1074 20.5332 13.5557C20.5332 13.0039 20.0859 12.5566 19.5342 12.5566C18.9824 12.5566 18.5352 13.0039 18.5352 13.5557C18.5352 14.1074 18.9824 14.5547 19.5342 14.5547Z" fill="#060201"/>
<path d="M12.4361 16.7671C14.2097 16.7671 15.6475 15.3293 15.6475 13.5557C15.6475 11.7821 14.2097 10.3442 12.4361 10.3442C10.6624 10.3442 9.22461 11.7821 9.22461 13.5557C9.22461 15.3293 10.6624 16.7671 12.4361 16.7671Z" fill="white" stroke="#0F0A3C" stroke-width="0.230509" stroke-miterlimit="10"/>
<path d="M12.4365 14.5547C12.9883 14.5547 13.4356 14.1074 13.4356 13.5557C13.4356 13.0039 12.9883 12.5566 12.4365 12.5566C11.8848 12.5566 11.4375 13.0039 11.4375 13.5557C11.4375 14.1074 11.8848 14.5547 12.4365 14.5547Z" fill="#060201"/>
<path d="M18.5012 18.9966C16.8581 20.9892 13.2917 20.1363 13.2566 20.1275C13.1455 20.1022 13.0289 20.1214 12.9318 20.1811C12.8347 20.2409 12.7649 20.3363 12.7374 20.4469C12.71 20.5575 12.727 20.6745 12.7849 20.7727C12.8427 20.8709 12.9368 20.9425 13.0469 20.9721C13.7001 21.12 14.3678 21.1939 15.0376 21.1925C16.369 21.1925 18.0715 20.8854 19.1724 19.5503C19.2409 19.4608 19.272 19.3482 19.2592 19.2363C19.2464 19.1243 19.1906 19.0216 19.1036 18.95C19.0167 18.8783 18.9053 18.8431 18.7929 18.8519C18.6805 18.8607 18.5759 18.9123 18.5012 18.9966Z" fill="#0F0A3C"/>
</svg>
