<svg width="34" height="32" viewBox="0 0 34 32" fill="none" xmlns="http://www.w3.org/2000/svg">
<path d="M13.1381 31.816C12.9116 31.816 12.6874 31.7714 12.4782 31.6847C12.269 31.598 12.0789 31.471 11.9188 31.3108C11.7587 31.1507 11.6317 30.9605 11.5451 30.7513C11.4585 30.5421 11.414 30.3178 11.414 30.0913V23.1936C11.4103 22.9648 11.4521 22.7375 11.5371 22.525C11.6221 22.3125 11.7485 22.119 11.909 21.9559C12.0694 21.7927 12.2608 21.6632 12.4719 21.5747C12.6829 21.4863 12.9095 21.4407 13.1383 21.4407C13.3671 21.4407 13.5937 21.4863 13.8048 21.5747C14.0158 21.6632 14.2072 21.7927 14.3676 21.9559C14.5281 22.119 14.6545 22.3125 14.7395 22.525C14.8245 22.7375 14.8663 22.9648 14.8626 23.1936V30.0927C14.8622 30.5499 14.6804 30.9882 14.357 31.3113C14.0336 31.6345 13.5952 31.816 13.1381 31.816ZM20.699 31.816C20.2419 31.816 19.8034 31.6345 19.4801 31.3113C19.1567 30.9882 18.9749 30.5499 18.9745 30.0927V23.1936C18.9707 22.9648 19.0126 22.7375 19.0976 22.525C19.1825 22.3125 19.3089 22.119 19.4694 21.9559C19.6299 21.7927 19.8213 21.6632 20.0323 21.5747C20.2434 21.4863 20.4699 21.4407 20.6988 21.4407C20.9276 21.4407 21.1542 21.4863 21.3652 21.5747C21.5763 21.6632 21.7676 21.7927 21.9281 21.9559C22.0886 22.119 22.215 22.3125 22.3 22.525C22.385 22.7375 22.4268 22.9648 22.423 23.1936V30.0927C22.4228 30.5498 22.2411 30.9882 21.9178 31.3113C21.5945 31.6345 21.1561 31.816 20.699 31.816ZM28.1152 17.3631L28.1226 17.3516L25.2129 15.5001C25.3097 15.3485 27.6284 11.7829 31.9735 11.7829C32.2024 11.7792 32.4296 11.821 32.6421 11.906C32.8546 11.991 33.048 12.1174 33.2111 12.2779C33.3743 12.4384 33.5038 12.6298 33.5923 12.8409C33.6807 13.0519 33.7263 13.2785 33.7263 13.5074C33.7263 13.7362 33.6807 13.9628 33.5923 14.1739C33.5038 14.385 33.3743 14.5763 33.2111 14.7368C33.048 14.8973 32.8546 15.0238 32.6421 15.1087C32.4296 15.1937 32.2024 15.2356 31.9735 15.2318C29.5488 15.2318 28.1728 17.2764 28.1152 17.3631ZM6.04181 18.8301C5.75955 18.8301 5.48164 18.7605 5.2328 18.6272C5.07376 18.5428 1.34032 16.5065 1.00519 12.173C0.984417 11.9454 1.00907 11.716 1.0777 11.4981C1.14634 11.2801 1.25759 11.078 1.405 10.9034C1.55241 10.7289 1.73304 10.5853 1.93639 10.4811C2.13974 10.377 2.36176 10.3143 2.58955 10.2966C2.81735 10.279 3.04637 10.3068 3.26332 10.3785C3.48027 10.4501 3.68082 10.5642 3.85332 10.714C4.02583 10.8638 4.16684 11.0465 4.26817 11.2512C4.36951 11.456 4.42914 11.6789 4.44361 11.907C4.63122 14.3338 6.83192 15.5711 6.85405 15.5831C7.19348 15.7641 7.46265 16.0534 7.61875 16.405C7.77485 16.7566 7.80893 17.1504 7.71556 17.5236C7.62218 17.8968 7.40673 18.228 7.10345 18.4647C6.80017 18.7013 6.42648 18.8302 6.04181 18.8301Z" fill="#0F0A3C"/>
<path d="M12.4414 6.23215C12.5986 5.59087 12.5594 4.53007 12.1929 3.98054C11.4405 2.85197 10.5005 2.28768 11.2524 0.783381C12.5142 -1.74023 8.30558 2.27016 7.99209 6.69916C7.74636 10.1775 10.4816 8.51418 11.6673 7.6401C12.0051 7.3918 12.2451 7.03288 12.3455 6.62586L12.4414 6.23215Z" fill="#23E7A1"/>
<path d="M21.4713 26.6425H12.5002C10.7349 26.6423 9.04194 25.9408 7.79366 24.6924C6.54538 23.444 5.84399 21.7509 5.84375 19.9854V11.0135C5.84375 9.24797 6.54506 7.55471 7.79339 6.30626C9.04173 5.05782 10.7348 4.35645 12.5002 4.35645H21.4713C22.3455 4.35638 23.2111 4.52853 24.0187 4.86306C24.8263 5.19759 25.5602 5.68795 26.1783 6.30613C26.7964 6.92431 27.2867 7.6582 27.6212 8.46591C27.9557 9.27361 28.1278 10.1393 28.1278 11.0135V19.9854C28.1278 21.751 27.4265 23.4442 26.1781 24.6927C24.9298 25.9411 23.2367 26.6425 21.4713 26.6425Z" fill="#23E7A1"/>
<path d="M20.5337 16.7671C22.3073 16.7671 23.7452 15.3293 23.7452 13.5557C23.7452 11.7821 22.3073 10.3442 20.5337 10.3442C18.7601 10.3442 17.3223 11.7821 17.3223 13.5557C17.3223 15.3293 18.7601 16.7671 20.5337 16.7671Z" fill="white" stroke="#0F0A3C" stroke-width="0.230509" stroke-miterlimit="10"/>
<path d="M20.5342 14.5547C21.0859 14.5547 21.5332 14.1074 21.5332 13.5557C21.5332 13.0039 21.0859 12.5566 20.5342 12.5566C19.9824 12.5566 19.5352 13.0039 19.5352 13.5557C19.5352 14.1074 19.9824 14.5547 20.5342 14.5547Z" fill="#060201"/>
<path d="M13.4361 16.7671C15.2097 16.7671 16.6475 15.3293 16.6475 13.5557C16.6475 11.7821 15.2097 10.3442 13.4361 10.3442C11.6624 10.3442 10.2246 11.7821 10.2246 13.5557C10.2246 15.3293 11.6624 16.7671 13.4361 16.7671Z" fill="white" stroke="#0F0A3C" stroke-width="0.230509" stroke-miterlimit="10"/>
<path d="M13.4365 14.5547C13.9883 14.5547 14.4356 14.1074 14.4356 13.5557C14.4356 13.0039 13.9883 12.5566 13.4365 12.5566C12.8848 12.5566 12.4375 13.0039 12.4375 13.5557C12.4375 14.1074 12.8848 14.5547 13.4365 14.5547Z" fill="#060201"/>
<path d="M19.5012 18.9966C17.8581 20.9892 14.2917 20.1363 14.2566 20.1275C14.1455 20.1022 14.0289 20.1214 13.9318 20.1811C13.8347 20.2409 13.7649 20.3363 13.7374 20.4469C13.71 20.5575 13.727 20.6745 13.7849 20.7727C13.8427 20.8709 13.9368 20.9425 14.0469 20.9721C14.7001 21.12 15.3678 21.1939 16.0376 21.1925C17.369 21.1925 19.0715 20.8854 20.1724 19.5503C20.2409 19.4608 20.272 19.3482 20.2592 19.2363C20.2464 19.1243 20.1906 19.0216 20.1036 18.95C20.0167 18.8783 19.9053 18.8431 19.7929 18.8519C19.6805 18.8607 19.5759 18.9123 19.5012 18.9966Z" fill="#0F0A3C"/>
</svg>
