<svg xmlns="http://www.w3.org/2000/svg" width="1523.38mm" height="244.86mm" viewBox="0 0 4318.23 694.08"><path d="M1875.78,1233.43v598.32h-136v-238H1576.62v238h-136V1233.43h136v238H1739.8v-238Z" transform="translate(-588.23 -1151.27)" fill="#0f0a3c"/><path d="M1928.47,1260.63a81.59,81.59,0,1,1,81.59,81.59A81.61,81.61,0,0,1,1928.47,1260.63Zm13.6,149.58h136v421.54h-136Z" transform="translate(-588.23 -1151.27)" fill="#0f0a3c"/><path d="M2360.2,1831.75V1233.43h136v598.32Z" transform="translate(-588.23 -1151.27)" fill="#0f0a3c"/><path d="M2970.42,1587v244.77h-136V1600.58c0-68-38.24-81.59-68-81.59-28,0-68,25.5-68,95.19v217.57h-136V1410.21h136v47.59c20.4-34,64.59-61.19,115.59-61.19C2899.88,1396.61,2970.42,1459.5,2970.42,1587Z" transform="translate(-588.23 -1151.27)" fill="#0f0a3c"/><path d="M3193.09,1532.59v125.78c0,64.59,24.65,78.19,68,51.85l40.79,104.53c-22.09,17-52.69,30.6-98.58,30.6-107.09,0-146.18-78.19-146.18-176.78v-136h-68V1410.21h68v-136l136-40.8v176.78h108.78v122.38Z" transform="translate(-588.23 -1151.27)" fill="#0f0a3c"/><path d="M3735.32,1665.17H3453.16c11.9,34,42.5,57.79,95.19,57.79,30.59,0,55.24-11,76.49-28l81.59,79.89c-34.85,39.09-95.19,70.54-163.18,70.54-137.68,0-229.47-100.29-229.47-224.37s85-224.37,219.27-224.37c119.83,0,208.22,81.59,209.07,209.07C3742.12,1623.53,3740.42,1649.88,3735.32,1665.17Zm-283.86-88.38h158.93c-6.8-32.3-29.75-57.8-73.94-57.8C3488,1519,3462.51,1542.79,3451.46,1576.79Z" transform="translate(-588.23 -1151.27)" fill="#0f0a3c"/><path d="M4066.78,1396.61v149.58c-30.59-9.35-62.89-8.5-87.54,0-38.24,13.6-75.64,55.24-75.64,121.53v164h-136V1410.21h136v75.64C3931.65,1427.21,3983.49,1401.71,4066.78,1396.61Z" transform="translate(-588.23 -1151.27)" fill="#0f0a3c"/><path d="M4513.82,1587v244.77h-136V1600.58c0-68-38.24-81.59-68-81.59-28.05,0-68,25.5-68,95.19v217.57h-136V1410.21h136v47.59c20.4-34,64.59-61.19,115.58-61.19C4443.28,1396.61,4513.82,1459.5,4513.82,1587Z" transform="translate(-588.23 -1151.27)" fill="#0f0a3c"/><path d="M4906.47,1699.17c0,79-62,146.18-188.68,146.18-93.48,0-158.08-42.5-178.47-62.89l54.39-102c40.79,33.15,79,45,104.54,47.59,48.44,5.1,72.24-6.8,72.24-22.94,0-19.55-22.95-25.5-62.05-33.15-135.13-26.35-148.73-92.64-148.73-139.38,0-68.84,58.65-136,172.53-136,0,0,77.34,0,141.08,42.49l-51.84,101.14a149.15,149.15,0,0,0-79.89-30.6c-28.9-2.55-45.89,5.1-45.89,19.55,0,13.6,8.5,20.4,42.49,26.35C4834.23,1571.69,4906.47,1609.08,4906.47,1699.17Z" transform="translate(-588.23 -1151.27)" fill="#0f0a3c"/><path d="M851.55,1841.38a37.4,37.4,0,0,1-37.4-37.41V1654.35a37.41,37.41,0,1,1,74.81,0V1804A37.41,37.41,0,0,1,851.55,1841.38Z" transform="translate(-588.23 -1151.27)" fill="#0f0a3c"/><path d="M1015.57,1841.38A37.41,37.41,0,0,1,978.16,1804V1654.35a37.41,37.41,0,1,1,74.81,0V1804A37.4,37.4,0,0,1,1015.57,1841.38Z" transform="translate(-588.23 -1151.27)" fill="#0f0a3c"/><path d="M1176.45,1527.88l.16-.25-63.12-40.16c2.1-3.29,52.4-80.63,146.66-80.63a37.41,37.41,0,1,1,0,74.81C1207.55,1481.65,1177.7,1526,1176.45,1527.88Z" transform="translate(-588.23 -1151.27)" fill="#0f0a3c"/><path d="M697.61,1559.7a37.16,37.16,0,0,1-17.55-4.4c-3.45-1.83-84.44-46-91.71-140a37.41,37.41,0,1,1,74.59-5.77c4.07,52.64,51.81,79.48,52.29,79.74a37.41,37.41,0,0,1-17.62,70.42Z" transform="translate(-588.23 -1151.27)" fill="#0f0a3c"/><path d="M836.41,1286.43c3.41-13.91,2.56-36.92-5.39-48.84-16.32-24.48-36.71-36.72-20.4-69.35,27.37-54.74-63.92,32.25-70.72,128.32-5.33,75.45,54,39.37,79.72,20.41a38.85,38.85,0,0,0,14.71-22Z" transform="translate(-588.23 -1151.27)" fill="#80ed99"/><path d="M1032.3,1729.16H837.69a144.42,144.42,0,0,1-144.4-144.4V1390.15a144.4,144.4,0,0,1,144.4-144.4H1032.3a144.39,144.39,0,0,1,144.4,144.4v194.61a144.4,144.4,0,0,1-144.4,144.4Z" transform="translate(-588.23 -1151.27)" fill="#80ed99"/><circle cx="423.75" cy="294.02" r="69.66" fill="#fff" stroke="#0f0a3c" stroke-miterlimit="10" stroke-width="5"/><circle cx="423.75" cy="294.02" r="21.67" fill="#060201"/><circle cx="269.78" cy="294.02" r="69.66" fill="#fff" stroke="#0f0a3c" stroke-miterlimit="10" stroke-width="5"/><circle cx="269.78" cy="294.02" r="21.67" fill="#060201"/><path d="M989.55,1563.31c-35.64,43.22-113,24.72-113.76,24.53a9.44,9.44,0,0,0-4.55,18.32,193.76,193.76,0,0,0,43.18,4.78c28.88,0,65.81-6.66,89.69-35.62a9.44,9.44,0,0,0-14.56-12Z" transform="translate(-588.23 -1151.27)" fill="#0f0a3c"/></svg>